<svg xmlns="http://www.w3.org/2000/svg" width="86" height="28" viewBox="0 0 86 28">
    <g fill="none" fill-rule="evenodd">
        <path fill="#FFF" d="M28.228 12.357c0-.744-.14-1.444-.422-2.098a5.489 5.489 0 0 0-1.164-1.72 5.488 5.488 0 0 0-1.724-1.163 5.259 5.259 0 0 0-2.1-.423A5.437 5.437 0 0 0 17.8 10.26a5.242 5.242 0 0 0-.423 2.098c0 .745.14 1.45.423 2.114.282.664.67 1.242 1.164 1.735.494.494 1.073.88 1.738 1.163a5.36 5.36 0 0 0 2.116.422 5.268 5.268 0 0 0 3.748-1.54 5.583 5.583 0 0 0 1.164-1.72 6.133 6.133 0 0 0 .498-2.174zm-5.47 7.336c-.968 0-1.89-.196-2.766-.588a7.615 7.615 0 0 1-3.9-3.91 6.915 6.915 0 0 1-.59-2.838c0-.986.192-1.917.575-2.792a7.589 7.589 0 0 1 1.557-2.31 7.235 7.235 0 0 1 2.312-1.57 7.178 7.178 0 0 1 2.872-.573 7.374 7.374 0 0 1 5.139 2.053 7.063 7.063 0 0 1 1.572 2.294c.382.886.574 1.852.574 2.898v14.66c0 .261-.09.483-.272.664a.905.905 0 0 1-.665.272.904.904 0 0 1-.665-.272.904.904 0 0 1-.273-.664V16.946a9.927 9.927 0 0 1-2.387 1.887c-.927.533-1.956.82-3.084.86zM31.796 5.957c0-.261.09-.483.272-.664a.904.904 0 0 1 .665-.272c.261 0 .483.09.664.272a.902.902 0 0 1 .273.664v6.46c0 .745.14 1.445.423 2.099a5.456 5.456 0 0 0 2.887 2.883 5.254 5.254 0 0 0 2.1.423c.746 0 1.446-.141 2.102-.423a5.489 5.489 0 0 0 1.723-1.162 5.476 5.476 0 0 0 1.163-1.721 5.24 5.24 0 0 0 .423-2.098v-6.46c0-.262.091-.484.273-.665a.904.904 0 0 1 .664-.272c.262 0 .484.09.666.272a.903.903 0 0 1 .271.664v6.46a7.074 7.074 0 0 1-.574 2.838 7.347 7.347 0 0 1-1.557 2.31 7.345 7.345 0 0 1-2.312 1.554 7.094 7.094 0 0 1-2.842.574 7.092 7.092 0 0 1-2.841-.574 7.345 7.345 0 0 1-2.312-1.554 7.347 7.347 0 0 1-1.558-2.31 7.074 7.074 0 0 1-.573-2.837v-6.46M60.15 12.418a6.153 6.153 0 0 0-.5-2.174 5.59 5.59 0 0 0-1.163-1.721 5.272 5.272 0 0 0-3.748-1.54c-.746 0-1.45.142-2.116.423a5.429 5.429 0 0 0-1.738 1.162 5.414 5.414 0 0 0-1.164 1.736 5.35 5.35 0 0 0-.423 2.114c0 .744.14 1.444.423 2.098a5.417 5.417 0 0 0 2.902 2.883c.665.282 1.37.423 2.116.423.745 0 1.445-.141 2.1-.423a5.48 5.48 0 0 0 2.888-2.883 5.255 5.255 0 0 0 .423-2.098zm-5.472-7.336c1.129.04 2.157.327 3.084.86A9.949 9.949 0 0 1 60.15 7.83V1.157c0-.261.09-.483.272-.664a.904.904 0 0 1 .665-.272c.261 0 .483.09.665.272a.903.903 0 0 1 .272.664v11.26c0 1.047-.192 2.013-.575 2.899a7.057 7.057 0 0 1-1.571 2.294 7.235 7.235 0 0 1-2.328 1.51 7.355 7.355 0 0 1-2.811.543 7.17 7.17 0 0 1-2.872-.574 7.235 7.235 0 0 1-2.312-1.57 7.595 7.595 0 0 1-1.557-2.309 6.899 6.899 0 0 1-.574-2.792c0-1.006.197-1.953.589-2.838a7.622 7.622 0 0 1 3.9-3.91 6.69 6.69 0 0 1 2.765-.588zM63.746 5.988c0-.262.09-.484.272-.665a.906.906 0 0 1 .666-.272c.261 0 .483.09.665.272a.903.903 0 0 1 .271.665v12.77c0 .26-.09.483-.271.663a.907.907 0 0 1-.665.272.906.906 0 0 1-.666-.272.9.9 0 0 1-.272-.663V5.988zm-.302-4.197c0-.342.12-.634.363-.876.242-.24.534-.362.877-.362.342 0 .634.121.876.362.242.242.363.534.363.876 0 .343-.121.634-.363.875a1.195 1.195 0 0 1-.876.363c-.343 0-.635-.121-.877-.363a1.189 1.189 0 0 1-.363-.875zM67.283 12.296c0-1.005.191-1.951.574-2.837a7.342 7.342 0 0 1 1.557-2.31 7.343 7.343 0 0 1 2.313-1.554 7.094 7.094 0 0 1 2.841-.574c1.008 0 1.954.192 2.841.574.887.382 1.658.9 2.313 1.555a7.359 7.359 0 0 1 1.557 2.31c.382.885.574 1.831.574 2.836v6.462c0 .26-.09.483-.272.663a.907.907 0 0 1-.665.272.906.906 0 0 1-.665-.272.9.9 0 0 1-.272-.663v-6.462c0-.744-.142-1.443-.424-2.098a5.48 5.48 0 0 0-1.163-1.72 5.482 5.482 0 0 0-1.723-1.162 5.261 5.261 0 0 0-2.1-.423c-.747 0-1.447.141-2.102.423a5.476 5.476 0 0 0-2.886 2.882 5.235 5.235 0 0 0-.424 2.098v6.462c0 .26-.09.483-.272.663a.904.904 0 0 1-.665.272.905.905 0 0 1-.665-.272.902.902 0 0 1-.272-.663v-6.462M83.516 5.988c0-.262.09-.484.272-.665a.906.906 0 0 1 .664-.272c.262 0 .484.09.666.272a.902.902 0 0 1 .271.665v12.77a.9.9 0 0 1-.271.663.906.906 0 0 1-.666.272.905.905 0 0 1-.664-.272.902.902 0 0 1-.272-.663V5.988zm-.302-4.197c0-.342.12-.634.362-.876.242-.24.534-.362.876-.362.343 0 .636.121.877.362.242.242.363.534.363.876 0 .343-.121.634-.363.875a1.196 1.196 0 0 1-.877.363c-.342 0-.634-.121-.876-.363a1.188 1.188 0 0 1-.362-.875z"/>
        <path fill="#D83431" d="M7.447 2.028a1.475 1.475 0 1 1-2.949 0 1.475 1.475 0 0 1 2.95 0"/>
        <path fill="#E78773" d="M2.952 6.37a1.475 1.475 0 1 1-2.95-.001 1.475 1.475 0 0 1 2.95 0M11.935 6.37a1.475 1.475 0 1 1-2.95-.002 1.475 1.475 0 0 1 2.95.001"/>
        <path fill="#D83431" d="M5.972 22.895a1.58 1.58 0 0 1-1.58-1.579V6.942a1.579 1.579 0 0 1 3.16 0v14.374c0 .872-.707 1.579-1.58 1.579"/>
        <path fill="#E78773" d="M10.459 19.37a1.187 1.187 0 0 1-1.187-1.186v-8.108a1.187 1.187 0 0 1 2.374 0v8.108c0 .654-.532 1.185-1.187 1.185M1.476 19.37A1.186 1.186 0 0 1 .29 18.183v-8.108a1.187 1.187 0 0 1 2.374 0v8.108c0 .654-.532 1.185-1.187 1.185"/>
    </g>
</svg>
